<svg width="163" height="200" viewBox="0 0 163 200" fill="none" xmlns="http://www.w3.org/2000/svg">
<circle cx="81.5" cy="118.5" r="81.5" fill="black"/>
<path d="M83.45 55.05L120.05 149.4C121.55 153.2 123.25 155.75 125.15 157.05C127.05 158.25 128.8 158.9 130.4 159V162C128.4 161.8 125.95 161.7 123.05 161.7C120.15 161.6 117.25 161.55 114.35 161.55C110.45 161.55 106.8 161.6 103.4 161.7C100 161.7 97.25 161.8 95.15 162V159C100.25 158.8 103.5 157.95 104.9 156.45C106.3 154.85 106 151.5 104 146.4L76.1 71.85L78.5 69.9L52.4 137.7C50.8 141.7 49.85 145.1 49.55 147.9C49.25 150.6 49.5 152.75 50.3 154.35C51.2 155.95 52.65 157.1 54.65 157.8C56.75 158.5 59.35 158.9 62.45 159V162C59.65 161.8 56.7 161.7 53.6 161.7C50.6 161.6 47.8 161.55 45.2 161.55C42.7 161.55 40.55 161.6 38.75 161.7C37.05 161.7 35.45 161.8 33.95 162V159C35.95 158.5 38 157.35 40.1 155.55C42.2 153.65 44.1 150.45 45.8 145.95L81.05 55.05C81.45 55.05 81.85 55.05 82.25 55.05C82.65 55.05 83.05 55.05 83.45 55.05ZM101.75 118.8V121.8H57.05L58.55 118.8H101.75Z" fill="white"/>
</svg>
